<svg width="48" height="56" viewBox="0 0 48 56" fill="none" xmlns="http://www.w3.org/2000/svg">
<path d="M23.7408 46.4081C30.0313 46.3612 36.0512 43.8425 40.5008 39.3956C44.9504 34.9487 47.4728 28.9304 47.5235 22.6399V0.008886L32.8654 14.6582V22.6374C32.9017 23.8584 32.6926 25.0741 32.2505 26.2126C31.8083 27.3513 31.1422 28.3896 30.2915 29.266C29.4407 30.1424 28.4227 30.8392 27.2978 31.315C26.1728 31.7908 24.9638 32.0359 23.7424 32.0359C22.521 32.0359 21.3119 31.7908 20.187 31.315C19.0621 30.8392 18.044 30.1424 17.1933 29.266C16.3425 28.3896 15.6764 27.3513 15.2343 26.2126C14.7922 25.0741 14.583 23.8584 14.6194 22.6374V14.6347L0 0V22.6374C0.0359427 28.9256 2.54781 34.9463 6.99146 39.3955C11.4351 43.8448 17.4527 46.3642 23.7408 46.4081Z" fill="white"/>
<path d="M9.58784 51.9661L9.50241 39.149L22.3194 39.245L9.58784 51.9661Z" fill="white" stroke="white" stroke-width="0.5"/>
<path d="M37.6859 52.0711L37.9543 39.2565L25.1373 39.1695L37.6859 52.0711Z" fill="white" stroke="white" stroke-width="0.5"/>
</svg>
